<svg width="45" height="46" fill="none" xmlns="http://www.w3.org/2000/svg"><path d="M36.563 7.336V.978H8.436v6.358H0v6.358c0 5.267 3.777 9.537 8.438 9.537.881 0 1.732-.153 2.532-.437 2.03 3.279 5.124 5.652 8.717 6.477v9.855h-2.812c-3.106 0-5.625 2.846-5.625 6.358h22.5c0-3.512-2.519-6.358-5.625-6.358h-2.813V29.27c3.593-.825 6.689-3.198 8.718-6.477a7.54 7.54 0 002.532.437c4.66 0 8.438-4.27 8.438-9.537V7.336h-8.438zM8.436 19.456c-2.81 0-5.097-2.585-5.097-5.762v-3.18h5.098v3.18c0 1.996.326 3.905.92 5.666a4.53 4.53 0 01-.92.096zm33.223-5.762c0 3.177-2.286 5.762-5.097 5.762a4.53 4.53 0 01-.922-.096c.595-1.76.922-3.67.922-5.666v-3.18h5.097v3.18z" fill="#61A568"/></svg>