<svg width="45" height="45" fill="none" xmlns="http://www.w3.org/2000/svg"><path d="M18.75 0C29.105 0 37.5 7.643 37.5 17.07c0 9.428-8.395 17.07-18.75 17.07-.995 0-1.97-.07-2.924-.206C11.8 38.447 7.148 39.257 2.5 39.375v-1.104c2.51-1.378 4.531-3.888 4.531-6.756 0-.4-.027-.793-.079-1.177C2.712 27.21 0 22.428 0 17.072 0 7.644 8.395.002 18.75.002V0zm20.156 38.263c0 2.458 1.419 4.61 3.594 5.79V45c-4.029-.101-7.726-.796-11.216-4.663a18.05 18.05 0 01-2.534.177c-3.729 0-7.165-1.132-9.906-3.033 5.651-.023 10.986-2.059 15.032-5.743a20.281 20.281 0 004.782-6.476A19.314 19.314 0 0040.42 15.7C43.255 18.335 45 21.925 45 25.882c0 4.591-2.35 8.69-6.025 11.371a7.452 7.452 0 00-.069 1.01z" fill="#61A568"/></svg>