<svg width="45" height="45" fill="none" xmlns="http://www.w3.org/2000/svg"><path d="M22.5 0C10.073 0 0 10.073 0 22.5S10.073 45 22.5 45 45 34.927 45 22.5 34.927 0 22.5 0zm0 42.188c-2.766 0-5.4-.573-7.788-1.602l10.246-11.527c.23-.258.356-.59.356-.934v-4.219c0-.776-.63-1.406-1.406-1.406-4.966 0-10.204-5.162-10.256-5.213a1.405 1.405 0 00-.994-.412H7.033c-.777 0-1.407.63-1.407 1.406v8.438c0 .533.301 1.02.778 1.257l4.847 2.424v8.256C6.151 35.1 2.814 29.19 2.814 22.5c0-3.02.68-5.88 1.896-8.438h5.135c.373 0 .731-.147.994-.412l5.625-5.625a1.4 1.4 0 00.412-.994V3.63c1.784-.53 3.67-.817 5.625-.817 3.094 0 6.02.714 8.626 1.985a8.383 8.383 0 00-3 6.452c0 2.254.878 4.372 2.472 5.967a8.416 8.416 0 006.378 2.462c.608 2.277 1.703 8.203-.37 16.362-.02.077-.03.153-.036.229a19.625 19.625 0 01-14.068 5.917H22.5z" fill="#61A568"/></svg>