<svg width="45" height="46" fill="none" xmlns="http://www.w3.org/2000/svg"><path d="M45 23.291C45 10.973 34.927.99 22.5.99S0 10.973 0 23.291c0 2.675.475 5.24 1.347 7.616A9.642 9.642 0 000 35.837c0 4.914 3.667 8.98 8.438 9.657V26.18c-1.403.2-2.71.69-3.856 1.411a18.09 18.09 0 01-.363-3.602c0-10.008 8.184-18.12 18.281-18.12s18.281 8.112 18.281 18.12c0 1.234-.123 2.438-.361 3.602a9.846 9.846 0 00-3.858-1.412v19.317C41.332 44.82 45 40.754 45 35.837c0-1.798-.49-3.482-1.347-4.928A22.07 22.07 0 0045 23.29v.001z" fill="#61A568"/></svg>