<svg width="45" height="45" fill="none" xmlns="http://www.w3.org/2000/svg"><path d="M13.357 36.738a3.692 3.692 0 002.052-6.763l-2.905-1.936a5.918 5.918 0 017.478 5.71 5.92 5.92 0 01-11.831.26l3.162 2.108c.63.419 1.34.62 2.045.62l-.001.001zM37.5 0C41.626 0 45 3.375 45 7.5v30c0 4.128-3.374 7.5-7.5 7.5h-30C3.376 45 0 41.628 0 37.5v-8.924l5.332 3.555a8.878 8.878 0 1017.473.066L33.75 22.4a9.798 9.798 0 005.555-2.783c3.844-3.845 3.844-10.077 0-13.92-3.845-3.844-10.078-3.845-13.922 0A9.806 9.806 0 0022.6 11.25l-8.996 13.634a8.848 8.848 0 00-4.03 1.203L0 19.704V7.501C0 3.375 3.375 0 7.5 0h30zm1.874 12.656a7.032 7.032 0 10-14.064.002 7.032 7.032 0 0014.064-.002zm-11.25 0a4.218 4.218 0 118.437 0 4.218 4.218 0 01-8.437 0z" fill="#61A568"/></svg>